<svg width="99" height="92" viewBox="0 0 99 92" fill="none" xmlns="http://www.w3.org/2000/svg">
<path d="M8.40969 19.0999C8.03139 18.6743 7.74014 17.8121 7.90638 18.8927C8.33098 21.6526 9.59615 24.2352 10.0085 27.0345C11.6366 38.0886 12.202 49.1852 12.7915 60.3125C13.1984 67.9919 13.4657 75.8587 15.3377 83.3466C16.9269 89.7037 22.1947 89.7762 27.9798 89.9489C40.5388 90.3238 53.0836 89.4456 65.6396 89.4456C72.5794 89.4456 79.5787 90.9062 86.3347 88.9127C100.343 84.779 97.1373 61.2705 96.9043 51.016C96.7432 43.9272 96.6208 36.8406 96.2233 29.7584C95.9315 24.5591 94.5938 19.5436 94.2101 14.3628C94.0043 11.5849 93.8459 4.45621 90.9829 2.84581C89.0317 1.74825 86.6568 2.02507 84.4991 2.04643C79.0968 2.09992 73.634 2.50917 68.2449 2.87542C54.4287 3.81439 40.6953 5.80967 26.8843 6.7243C19.9455 7.18382 13.1111 8.68477 6.15958 8.97441C3.81812 9.07197 1.66195 8.96297 2.04424 11.639C2.50881 14.891 3.52517 18.0757 4.41278 21.2316C5.94259 26.6709 9.99614 29.87 12.6731 34.5547" stroke="#F04137" stroke-width="3" stroke-linecap="round"/>
<path d="M71.8274 15.9023C71.2977 15.9686 76.758 24.408 74.492 26.5608C71.9735 28.9533 67.7615 25.879 66.0837 23.8962C65.1519 22.795 64.339 21.4864 63.5375 20.2841C63.4687 20.181 62.756 18.7875 62.8861 18.8038C63.6825 18.9033 66.1372 24.1683 66.3797 24.962C67.0243 27.0714 66.2307 29.5628 63.5967 29.107C60.2528 28.5282 57.6435 25.9506 55.8397 23.2448C54.1935 20.7754 54.7377 22.1594 55.9581 23.8962C56.8441 25.1569 59.6254 28.1374 58.3859 29.7583C55.8111 33.1254 47.1557 32.3743 43.4049 32.8374C39.8051 33.2818 38.8513 34.6106 42.7535 36.1534C47.5398 38.0456 52.8562 38.5128 57.6161 40.4167C60.7122 41.6552 57.3704 43.1324 55.8397 43.6143C50.5448 45.2812 44.3177 44.7304 39.1415 42.9629C34.5201 41.3849 34.4661 38.2363 33.8715 34.1401C33.4294 31.0948 31.4983 28.9232 29.7266 26.5608" stroke="#F04137" stroke-width="3" stroke-linecap="round"/>
<path d="M62.7679 61.2007C63.3007 66.5293 66.7749 71.3432 59.2446 72.6289C55.8713 73.2048 50.5829 72.6947 49.2376 68.9577C48.7397 67.5748 48.9625 63.5692 51.162 63.5692C53.003 63.5692 54.8608 65.8751 55.1885 67.4773C55.9624 71.2607 50.1545 73.5578 47.5796 74.4941C44.0886 75.7636 40.3594 76.9098 36.6251 77.1587C35.677 77.2219 32.1919 77.8553 31.8584 77.1883" stroke="#F04137" stroke-width="3" stroke-linecap="round"/>
<path d="M55.8399 52.674C54.3852 52.674 61.6629 51.5278 62.7383 51.3417C67.0141 50.6017 71.8964 50.8917 76.0317 49.7429C76.6347 49.5755 80.2307 49.7864 78.6371 50.4239C76.3692 51.3311 73.6771 51.2111 71.2946 51.6082" stroke="#F04137" stroke-width="3" stroke-linecap="round"/>
</svg>
